Coordinates
version=1
nRows=15
nColumns=34
inDegrees=yes

Units are S.I. units (second, meters, Newtons, ...)
If the header above contains a line with 'inDegrees', this indicates whether rotational values are in degrees (yes) or radians (no).

endheader
time	pelvis_tilt	pelvis_list	pelvis_rotation	pelvis_tx	pelvis_ty	pelvis_tz	hip_flexion_r	hip_adduction_r	hip_rotation_r	knee_angle_r	ankle_angle_r	subtalar_angle_r	mtp_angle_r	hip_flexion_l	hip_adduction_l	hip_rotation_l	knee_angle_l	ankle_angle_l	subtalar_angle_l	mtp_angle_l	lumbar_extension	lumbar_bending	lumbar_rotation	arm_flex_r	arm_add_r	arm_rot_r	elbow_flex_r	pro_sup_r	arm_flex_l	arm_add_l	arm_rot_l	elbow_flex_l	pro_sup_l
      0.00000000	      0.53190145	     -1.46769297	      2.09274649	      0.77620669	      0.91239651	     -0.01678937	     -0.56182686	     -2.29459007	     -7.86195860	      6.46532026	      2.81935451	    -12.43293930	      0.00000000	     -1.93346932	     -6.56444464	     -8.27761190	      3.32158604	     10.90546850	     -1.49684865	      0.00000000	     -1.89391248	      1.59576148	      1.37292731	     14.28474392	     -5.70572257	     58.81159145	     56.14531913	     80.45066128	     13.42115265	     -0.61144797	     45.21329032	     47.44881115	     78.54643465
      0.01666670	     -1.80974029	     -0.74874948	      1.76531082	      0.77945765	      0.90833040	     -0.01736795	      1.90885267	     -2.85815581	     -8.42878663	      6.26535071	      6.56665867	    -10.12693232	      0.00000000	      0.85730587	     -5.39933365	    -10.68939314	      3.44585241	     10.97257514	      0.36112896	      0.00000000	      1.48100283	      1.00121075	      1.69299273	     13.50534684	     -5.41021153	     58.98045345	     55.13865778	     80.55136924	     12.39895964	     -0.74422559	     44.92932235	     46.59467673	     77.85006563
      0.03333330	     -2.65165076	      0.19194882	      1.62687739	      0.78049015	      0.90644568	     -0.01663961	      2.23151820	     -3.82009206	    -10.04413408	      5.03024506	      7.47649427	     -7.14332674	      0.00000000	      1.59459022	     -4.46423758	    -12.52871153	      3.33609796	     11.21898940	      3.01539791	      0.00000000	      2.78642275	     -0.09694421	      2.21034639	     13.62329998	     -4.36626466	     59.03859818	     52.54251291	     81.34442702	     12.24934770	     -0.92777789	     44.44089375	     45.76825211	     76.80428767
      0.05000000	     -2.38892894	      0.85492134	      1.63981147	      0.78068126	      0.90686775	     -0.01703074	      1.45071008	     -4.56511120	    -11.32580538	      4.20827681	      8.46996188	     -4.67200688	      0.00000000	      0.79209221	     -3.71208328	    -13.59672524	      2.50086398	     10.84678809	      4.51273837	      0.00000000	      2.69705543	     -0.81509687	      2.59994281	     13.79099046	     -4.05088143	     59.67969399	     51.44785098	     83.20321876	     12.36947451	     -1.08206082	     44.54357355	     45.68173428	     75.66504035
      0.06666670	     -2.53573405	      1.13428281	      1.58627017	      0.78007548	      0.90679215	     -0.01659428	      1.28578847	     -4.76807683	    -11.23109833	      3.54459469	      8.60382507	     -4.31337003	      0.00000000	      0.66029172	     -3.34572920	    -13.80711051	      1.81384624	     10.14898317	      4.81794604	      0.00000000	      2.92092693	     -1.08460827	      2.94018030	     13.60584690	     -4.01585159	     59.97885783	     51.38702090	     83.44577189	     12.30943900	     -1.07370349	     44.67280654	     45.73982248	     75.61514797
      0.08333330	     -2.58180106	      1.25086857	      1.62325555	      0.78024006	      0.90712438	     -0.01674932	      1.24879936	     -4.83524670	    -11.23437004	      3.30425244	      8.68909276	     -4.23137124	      0.00000000	      0.70069737	     -3.17935468	    -13.87085502	      1.63424383	     10.04214828	      4.89184365	      0.00000000	      2.84309749	     -1.00494372	      3.00842927	     13.50712126	     -3.89438483	     60.12381319	     51.43189767	     83.49863388	     12.33608276	     -0.95229143	     44.74496084	     45.77608987	     75.62235046
      0.10000000	     -1.88631216	      1.37984940	      1.50126171	      0.78078743	      0.90765901	     -0.01636048	      0.29146795	     -4.92217240	    -11.93736969	      2.95355010	      9.47903612	     -2.18300496	      0.00000000	     -0.34857729	     -3.01751916	    -14.75764644	      1.01494498	      9.52240521	      6.24695900	      0.00000000	      2.13901002	     -1.22118323	      3.48491570	     14.06969286	     -4.49160670	     62.76361013	     52.40276834	     84.74232038	     13.03773938	     -1.08848594	     46.78970854	     45.61911494	     76.08258601
      0.11666670	     -1.91663778	      1.40855368	      1.57974684	      0.78101428	      0.90725967	     -0.01646478	      0.25025738	     -4.93774934	    -11.92995670	      2.87307062	      9.47261238	     -2.14650277	      0.00000000	     -0.32311163	     -2.97243655	    -14.70067983	      0.92768727	      9.47043173	      6.32871635	      0.00000000	      2.08406309	     -1.18110570	      3.46381882	     13.85656695	     -4.42246218	     62.91611517	     52.45263568	     84.78526800	     13.03059864	     -1.06208262	     46.86320308	     45.62684105	     76.10618163
      0.13333330	     -1.92005611	      1.41094749	      1.58008515	      0.78071124	      0.90703163	     -0.01645347	      0.24707492	     -4.93502620	    -11.93045926	      2.87338772	      9.47260823	     -2.14623274	      0.00000000	     -0.32496757	     -2.97221432	    -14.70047226	      0.92770894	      9.46939221	      6.32963050	      0.00000000	      2.08427649	     -1.18117508	      3.46402688	     13.85487772	     -4.42262878	     62.91776701	     52.45338276	     84.78565204	     13.02985296	     -1.06294959	     46.86411735	     45.62663717	     76.10648147
      0.15000000	     -1.42679741	      1.39317668	      1.74808413	      0.78087479	      0.90787764	     -0.01657339	     -0.55716140	     -4.85436694	    -12.44587969	      2.46571114	      9.61634299	     -1.35737524	      0.00000000	     -0.97547990	     -3.01330234	    -14.97035723	      0.66425658	      9.20168301	      7.37066720	      0.00000000	      1.50917266	     -1.16797874	      3.38519228	     14.49200278	     -5.35950286	     65.74319016	     54.37576841	     85.67294229	     13.63237669	     -1.75063040	     49.45609652	     46.00343948	     77.15735034
      0.16666670	     -1.42588269	      1.39191691	      1.76593929	      0.78013222	      0.90819619	     -0.01640773	     -0.54347045	     -4.85221745	    -12.45451446	      2.45041752	      9.59024075	     -1.34588051	      0.00000000	     -0.96641197	     -3.02648347	    -14.96493271	      0.64719673	      9.16577712	      7.39278149	      0.00000000	      1.46225167	     -1.13676040	      3.40576360	     14.45889759	     -5.40167128	     65.76756991	     54.36626676	     85.68257504	     13.59826169	     -1.86108182	     49.47661259	     45.96671517	     77.17445603
      0.18333330	     -1.42614388	      1.37376258	      1.76980639	      0.78045912	      0.90850811	     -0.01669289	     -0.55408906	     -4.82518980	    -12.52305547	      2.40692626	      9.50117812	     -1.33404091	      0.00000000	     -0.98525573	     -3.04333433	    -14.99582698	      0.63314899	      9.04691513	      7.44401252	      0.00000000	      1.39168307	     -1.07858551	      3.40234664	     14.33766928	     -5.53425140	     65.85018036	     54.37338237	     85.70224000	     13.57072675	     -2.09986779	     49.52935969	     45.91630489	     77.21365610
      0.20000000	     -1.07195551	      1.35727564	      1.84896416	      0.78124429	      0.90825545	     -0.01707651	     -1.11104596	     -4.76641808	    -12.82600600	      2.09298617	      9.17904863	     -1.17700082	      0.00000000	     -1.47243788	     -3.05828418	    -15.31381857	      0.45691192	      8.88246100	      8.09028767	      0.00000000	      0.99788630	     -1.01243870	      3.24758030	     14.69750287	     -6.07997005	     67.03244912	     55.59897660	     86.09893070	     13.95291221	     -2.72531307	     51.25341903	     46.67591090	     78.32070739
      0.21666670	     -1.08148798	      1.35756332	      1.81466661	      0.78095161	      0.90873594	     -0.01705086	     -1.08888874	     -4.76454774	    -12.87660324	      2.05108163	      9.14462130	     -1.18230996	      0.00000000	     -1.47674884	     -3.04873723	    -15.33366559	      0.44602697	      8.83332682	      8.10600535	      0.00000000	      0.95909403	     -0.97543351	      3.26497750	     14.65432852	     -6.17304935	     67.04894220	     55.57126797	     86.10558897	     13.94278326	     -2.84799000	     51.25970542	     46.64054646	     78.34777307
      0.23333330	     -1.07935137	      1.35296621	      1.84257713	      0.78080217	      0.90901022	     -0.01734706	     -1.10631057	     -4.76362375	    -12.97873384	      2.00094847	      9.04470388	     -1.18603754	      0.00000000	     -1.51083833	     -3.03847617	    -15.41381676	      0.38870874	      8.74007856	      8.13032849	      0.00000000	      0.98025551	     -0.91239728	      3.28875884	     14.63554391	     -6.32800941	     67.06801479	     55.56542111	     86.11534753	     13.95720133	     -3.02740551	     51.27662010	     46.61929295	     78.39432224
